<svg t="1758378314928" class="icon" viewBox="0 0 1024 1024" version="1.1" xmlns="http://www.w3.org/2000/svg" p-id="4770" width="200" height="200"><path d="M0 0m409.6 0l204.8 0q409.6 0 409.6 409.6l0 204.8q0 409.6-409.6 409.6l-204.8 0q-409.6 0-409.6-409.6l0-204.8q0-409.6 409.6-409.6Z" fill="#FA7301" opacity=".2" p-id="4771"></path><path d="M494.51008 583.97696c57.79456 0 87.61344 5.84704 117.84192 21.89312a154.81856 154.81856 0 0 1 64.512 64.04096 158.91456 158.91456 0 0 1 16.68096 46.40768c0.48128 2.43712 0.94208 4.92544 1.35168 7.48544a26.17344 26.17344 0 1 1-51.68128 8.37632c-0.3072-1.93536-0.65536-3.79904-1.024-5.60128a107.06944 107.06944 0 0 0-11.48928-31.80544 102.48192 102.48192 0 0 0-42.92608-42.61888 133.05856 133.05856 0 0 0-57.83552-14.75584l-7.85408-0.4608-8.47872-0.32768q-4.58752-0.12288-9.216-0.18432l-9.94304-0.06144h-69.67296q-7.7312 0-14.60224 0.13312l-8.83712 0.26624-4.15744 0.18432-7.85408 0.4608a133.12 133.12 0 0 0-57.82528 14.75584 102.48192 102.48192 0 0 0-42.92608 42.61888 107.06944 107.06944 0 0 0-11.48928 31.80544c-0.3584 1.792-0.69632 3.66592-1.024 5.60128a26.17344 26.17344 0 1 1-51.68128-8.37632c0.4096-2.56 0.8704-5.04832 1.35168-7.48544a158.9248 158.9248 0 0 1 16.73216-46.35648 154.80832 154.80832 0 0 1 64.512-64.04096c29.184-15.48288 57.97888-21.504 111.96416-21.87264z m275.06688 55.67488a98.18112 98.18112 0 0 1 18.57536 24.23808 99.328 99.328 0 0 1 10.5984 29.06112 98.304 98.304 0 0 1 0.84992 4.57728 26.18368 26.18368 0 1 1-51.67104 8.47872l-0.23552-1.37216-0.24576-1.31072a47.50336 47.50336 0 0 0-5.26336-14.336 46.29504 46.29504 0 0 0-6.67648-9.34912l-2.048-2.048a26.18368 26.18368 0 1 1 36.07552-37.95968z m-110.9504-291.26656a95.76448 95.76448 0 0 1 48.61952 10.01472 73.2672 73.2672 0 0 1 30.34112 30.34112 91.51488 91.51488 0 0 1 9.97376 44.43136V468.82816a95.76448 95.76448 0 0 1-10.01472 48.61952 73.2672 73.2672 0 0 1-30.34112 30.34112 91.51488 91.51488 0 0 1-44.43136 9.97376h-22.5792a26.17344 26.17344 0 0 1-1.96608-52.28544l1.96608-0.06144h18.432l5.28384-0.06144 4.4544-0.22528a32.90112 32.90112 0 0 0 14.20288-3.5328 20.9408 20.9408 0 0 0 8.84736-8.8576 32.69632 32.69632 0 0 0 3.54304-14.20288l0.22528-4.4544 0.0512-2.52928v-34.22208c0-1.91488 0-3.66592-0.06144-5.28384l-0.22528-4.4544a32.90112 32.90112 0 0 0-3.5328-14.20288 20.9408 20.9408 0 0 0-8.8576-8.84736 32.69632 32.69632 0 0 0-14.20288-3.54304l-4.4544-0.22528q-2.64192-0.07168-5.28384-0.06144a26.18368 26.18368 0 0 1 0-52.35712z m-186.46016-78.53056a121.2928 121.2928 0 0 1 61.82912 12.544 90.38848 90.38848 0 0 1 37.44768 37.44768 121.46688 121.46688 0 0 1 12.544 61.82912v38.144a121.2928 121.2928 0 0 1-12.544 61.82912 90.38848 90.38848 0 0 1-37.44768 37.44768 121.46688 121.46688 0 0 1-61.82912 12.544h-25.04704a121.30304 121.30304 0 0 1-61.82912-12.544 90.38848 90.38848 0 0 1-37.44768-37.44768 121.46688 121.46688 0 0 1-12.544-61.82912v-38.144a121.30304 121.30304 0 0 1 12.53376-61.82912 90.38848 90.38848 0 0 1 37.44768-37.44768 121.33376 121.33376 0 0 1 61.83936-12.544z m0 52.35712h-28.672a67.04128 67.04128 0 0 0-33.54624 6.31808 38.06208 38.06208 0 0 0-15.98464 15.96416 72.51968 72.51968 0 0 0-6.3488 37.14048v41.728a67.04128 67.04128 0 0 0 6.31808 33.54624 38.07232 38.07232 0 0 0 15.96416 15.98464 72.52992 72.52992 0 0 0 37.14048 6.3488h25.04704a72.46848 72.46848 0 0 0 37.13024-6.3488 38.07232 38.07232 0 0 0 15.98464-15.96416 72.52992 72.52992 0 0 0 6.3488-37.14048v-38.11328a72.46848 72.46848 0 0 0-6.3488-37.13024 38.05184 38.05184 0 0 0-15.96416-15.98464 72.58112 72.58112 0 0 0-37.16096-6.3488z" fill="#FA7301" p-id="4772"></path></svg>