<svg t="1758345856958" class="icon" viewBox="0 0 1024 1024" version="1.1" xmlns="http://www.w3.org/2000/svg" p-id="3373" width="200" height="200"><path d="M1016.04693333 610.9184l41.54026667-101.51253333-41.54026667-99.08906667V302.83093333L938.46186667 225.28l-42.3936-101.1712-99.46453334-40.68693333-75.9808-76.01493334h-109.70453333L509.40586667-34.13333333l-99.08906667 41.54026666H302.83093333L225.28 84.95786667 124.1088 127.3856 83.42186667 226.85013333 7.40693333 302.83093333v109.6704L-34.13333333 514.01386667l41.54026666 99.1232v107.48586666l77.55093334 77.55093334 42.42773333 101.1712 99.46453333 40.68693333 75.9808 76.01493333h109.70453334l101.4784 41.54026667 99.1232-41.54026667h107.48586666l77.55093334-77.58506666 101.1712-42.3936 40.68693333-99.46453334 76.01493333-75.9808z" fill="#FFCC70" p-id="3374"></path><path d="M697.51466667 176.9472A1365.7088 1365.7088 0 0 0 209.88586667 902.58773333a706.90133333 706.90133333 0 0 0 47.95733333-17.16906666A1365.9136 1365.9136 0 0 1 699.76746667 236.30506667a693.11146667 693.11146667 0 0 0-2.2528-59.35786667z" fill="#B18C25" p-id="3375"></path><path d="M573.1328 469.33333333a478.5152 478.5152 0 0 0 245.41866667-73.216 480.256 480.256 0 0 0-30.72-288.01706666C495.4112 203.84426667 297.43786667 475.57973333 291.60106667 779.1616c47.37706667 5.4272 96.32426667 3.8912 145.6128-5.56373333 162.03093333-31.06133333 289.34826667-139.9808 350.75413333-280.576a729.56586667 729.56586667 0 0 1-214.8352-23.68853334z" fill="#FFFFFF" p-id="3376"></path><path d="M346.14613333 793.1904c-18.56853333 0-37.34186667-1.05813333-55.808-3.1744l-9.86453333-1.1264 0.2048-9.9328A732.16 732.16 0 0 1 784.41813333 97.75786667l9.4208-3.10613334 3.95946667 9.1136c14.6432 33.65546667 25.53173333 68.7104 32.3584 104.27733334 12.11733333 63.31733333 11.81013333 127.31733333-0.9216 190.2592l-0.9216 4.57386666-3.95946667 2.49173334a487.59466667 487.59466667 0 0 1-168.3456 66.2528c-3.51573333 0.68266667-7.03146667 1.29706667-10.5472 1.91146666 46.7968 7.50933333 94.5152 10.41066667 142.09706667 8.56746667l17.37386667-0.68266667-6.9632 15.94026667a492.6464 492.6464 0 0 1-451.82293334 295.8336z m-43.38346666-23.8592a471.07413333 471.07413333 0 0 0 467.968-264.94293333c-3.6864 0.06826667-7.3728 0.06826667-11.0592 0.06826666-63.96586667 0-127.6928-8.26026667-189.37173334-24.61013333l-75.02506666-19.8656 77.58506666-1.60426667a466.0224 466.0224 0 0 0 235.86133334-69.05173333c11.29813333-58.6752 11.264-118.272-0.03413334-177.22026667a472.95146667 472.95146667 0 0 0-27.0336-90.45333333A710.51946667 710.51946667 0 0 0 302.76266667 769.3312z" fill="#CFA41E" p-id="3377"></path><path d="M366.592 793.1904c-18.56853333 0-37.34186667-1.05813333-55.808-3.1744l-9.86453333-1.1264 0.2048-9.9328A732.2624 732.2624 0 0 1 804.864 97.72373333l9.4208-3.10613333 3.95946667 9.1136c14.6432 33.62133333 25.53173333 68.7104 32.3584 104.27733333 12.11733333 63.2832 11.81013333 127.31733333-0.9216 190.2592l-0.9216 4.57386667-3.95946667 2.49173333a487.59466667 487.59466667 0 0 1-168.3456 66.2528c-3.51573333 0.68266667-7.03146667 1.29706667-10.5472 1.91146667a728.3712 728.3712 0 0 0 142.09706667 8.6016l17.37386666-0.68266667-6.9632 15.94026667a492.6464 492.6464 0 0 1-451.82293333 295.8336z m-43.4176-23.8592a471.07413333 471.07413333 0 0 0 467.968-264.94293333 741.30773333 741.30773333 0 0 1-200.3968-24.54186667l-75.02506667-19.8656 77.58506667-1.60426667a466.0224 466.0224 0 0 0 235.86133333-69.05173333 466.8416 466.8416 0 0 0-0.03413333-177.22026667 472.95146667 472.95146667 0 0 0-27.0336-90.45333333 710.5536 710.5536 0 0 0-478.9248 647.68z" fill="#B18C25" p-id="3378"></path><path d="M787.83146667 108.10026667a480.256 480.256 0 0 1 30.72 288.01706666 477.25226667 477.25226667 0 0 1-245.41866667 73.216c32.63146667 8.63573333 66.01386667 15.0528 99.9424 19.08053334 37.71733333 4.5056 76.11733333 6.07573333 114.8928 4.608-61.40586667 140.56106667-188.7232 249.51466667-350.75413333 280.576a481.04106667 481.04106667 0 0 1-145.6128 5.56373333c5.8368-303.58186667 203.81013333-575.31733333 496.2304-671.06133333" fill="#FFCC70" p-id="3379"></path><path d="M346.14613333 793.1904c-18.56853333 0-37.34186667-1.05813333-55.808-3.1744l-9.86453333-1.1264 0.2048-9.9328A732.16 732.16 0 0 1 784.41813333 97.75786667l29.86666667-3.10613334-16.45226667 9.1136c14.6432 33.62133333 25.53173333 68.7104 32.3584 104.27733334 12.11733333 63.2832 11.81013333 127.31733333-0.9216 190.2592l-0.9216 4.57386666-3.95946666 2.49173334a487.59466667 487.59466667 0 0 1-168.3456 66.2528c-3.51573333 0.68266667-7.03146667 1.29706667-10.5472 1.91146666a728.3712 728.3712 0 0 0 142.09706666 8.6016l17.37386667-0.68266666-6.9632 15.94026666a492.6464 492.6464 0 0 1-451.85706667 295.79946667z m-43.38346666-23.8592a471.07413333 471.07413333 0 0 0 467.968-264.94293333 741.30773333 741.30773333 0 0 1-200.3968-24.54186667l-75.02506667-19.8656 77.58506667-1.60426667a466.0224 466.0224 0 0 0 235.86133333-69.05173333 466.8416 466.8416 0 0 0-0.03413333-177.22026667 472.95146667 472.95146667 0 0 0-27.0336-90.45333333A710.48533333 710.48533333 0 0 0 302.76266667 769.3312z" fill="#B18C25" p-id="3380"></path><path d="M716.42453333 199.44106667c-217.25866667 183.97866667-385.57013333 419.0208-489.30133333 697.4464l83.8656-32.01706667c80.34986667-254.60053333 198.5536-443.93813333 406.016-612.11306667 0.06826667-19.6608 0.98986667-33.45066667-0.58026667-53.31626666z" fill="#B18C25" p-id="3381"></path><path d="M714.752 171.24693333A1365.57226667 1365.57226667 0 0 0 227.1232 896.85333333a706.90133333 706.90133333 0 0 0 47.95733333-17.16906666A1365.9136 1365.9136 0 0 1 717.0048 230.57066667c0.06826667-19.6608-0.68266667-39.45813333-2.2528-59.32373334z" fill="#EDEEEE" p-id="3382"></path></svg>
